<?xml version="1.0" standalone="no"?>
<!DOCTYPE svg PUBLIC "-//W3C//DTD SVG 20010904//EN"
 "http://www.w3.org/TR/2001/REC-SVG-20010904/DTD/svg10.dtd">
<svg version="1.0" xmlns="http://www.w3.org/2000/svg"
 width="521.000000pt" height="521.000000pt" viewBox="0 0 521.000000 521.000000"
 preserveAspectRatio="xMidYMid meet">

<g transform="translate(0.000000,521.000000) scale(0.100000,-0.100000)"
fill="#000000" stroke="none">
<path d="M2180 3522 c-234 -405 -448 -777 -476 -827 l-52 -90 757 -5 756 -5
217 -375 c120 -206 218 -378 218 -382 0 -5 -87 -8 -192 -8 l-193 0 -170 295
-170 295 -198 0 -199 0 24 -42 c38 -67 452 -787 485 -843 l29 -50 597 -3 596
-2 -122 212 c-68 117 -258 446 -422 731 l-299 517 -559 0 c-465 0 -558 2 -555
14 7 29 344 605 352 603 5 -2 65 -101 133 -220 l125 -217 200 0 200 0 -25 43
c-92 159 -558 966 -592 1024 l-41 72 -424 -737z"/>
<path d="M1540 1950 l0 -470 328 0 327 0 97 168 97 167 -395 3 c-216 1 -394 6
-394 10 0 7 62 116 253 445 l86 147 -200 0 -199 0 0 -470z"/>
</g>
</svg>
